<?xml version="1.0"?>
<svg xmlns="http://www.w3.org/2000/svg" id="outline" viewBox="0 0 512 512" width="512" height="512"><path d="M437.845,105.352a112.106,112.106,0,0,0-139.2-58.961,87.983,87.983,0,0,0-131.7,16.57A112.013,112.013,0,0,0,64.458,260.229L18.343,306.343l11.314,11.314,64-64A8,8,0,0,0,96,248V211.313L224.056,83.257a11.247,11.247,0,0,1,15.887,0L248.686,92l-54.343,54.343,11.314,11.314,73.982-73.981a11.822,11.822,0,0,1,16.722,0L308.686,96l-82.343,82.343,11.314,11.314,96-96a14.628,14.628,0,1,1,20.687,20.686l-96,96,11.314,11.314L352,139.314l6.466,6.465a20.114,20.114,0,0,1,0,28.442L242.343,290.343A8,8,0,0,0,248,304h48a8,8,0,0,0,5.657-2.343l24-24a25.987,25.987,0,0,1,30.137-4.765L292.687,336H168a8,8,0,0,0-5.657,2.343l-56,56,11.314,11.314L171.313,352H276.686l16,16H240a56.063,56.063,0,0,0-56,56,8,8,0,0,0,8,8H388.687l61.656,61.657,11.314-11.314-64-64A8,8,0,0,0,392,416H200.8A40.071,40.071,0,0,1,240,384h72a8,8,0,0,0,5.657-13.657L298.8,351.485a7.988,7.988,0,0,0,2.858-1.828l43.3-43.3a88.029,88.029,0,0,0,90.416-17.41A88.483,88.483,0,0,0,447.6,275.15l.4.369V304a8,8,0,0,0,2.343,5.657l32,32,11.314-11.314L464,300.687V272a8,8,0,0,0-2.594-5.9l-5.565-5.1a87.589,87.589,0,0,0,7.274-24.565,71.985,71.985,0,0,0-25.27-131.084ZM451.668,224.68a8,8,0,0,0-4,6.2,72.025,72.025,0,0,1-89.988,62.762l15.981-15.981a8,8,0,0,0,0-11.314,41.989,41.989,0,0,0-59.314,0L292.687,288H267.313L369.778,185.534a36.111,36.111,0,0,0,0-51.068L363.313,128l2.343-2.343a30.627,30.627,0,0,0-43.313-43.314L320,84.686,307.676,72.362a27.826,27.826,0,0,0-39.352,0L260,80.686l-8.743-8.743a27.267,27.267,0,0,0-38.515,0l-130.4,130.4A8,8,0,0,0,80,208v36.687l-4.011,4.01a96.017,96.017,0,0,1,90.96-168.463,8,8,0,0,0,10.226-3.4A71.985,71.985,0,0,1,291.1,61.291a8,8,0,0,0,8.7,1.774,96.084,96.084,0,0,1,125.044,52.519,8,8,0,0,0,6.38,4.9,55.986,55.986,0,0,1,20.442,104.2Z"/><path d="M360,360a32,32,0,1,0,32-32A32.036,32.036,0,0,0,360,360Zm48,0a16,16,0,1,1-16-16A16.019,16.019,0,0,1,408,360Z"/><path d="M464,360a24,24,0,1,0,24,24A24.027,24.027,0,0,0,464,360Zm0,32a8,8,0,1,1,8-8A8.009,8.009,0,0,1,464,392Z"/><path d="M456,72a24,24,0,1,0-24-24A24.027,24.027,0,0,0,456,72Zm0-32a8,8,0,1,1-8,8A8.009,8.009,0,0,1,456,40Z"/><path d="M136,328a24,24,0,1,0-24,24A24.027,24.027,0,0,0,136,328Zm-32,0a8,8,0,1,1,8,8A8.009,8.009,0,0,1,104,328Z"/></svg>
