<svg id="Outline" height="512" viewBox="0 0 512 512" width="512" xmlns="http://www.w3.org/2000/svg"><g><path d="m94.7 254.524a68.065 68.065 0 0 0 15.068 79.342l10.88-11.732a52.011 52.011 0 0 1 -7.282-67.914 8 8 0 0 0 1.177-6.646q-.2-.747-.383-1.5a8 8 0 0 0 -7.527-6.093 44 44 0 0 1 1.367-87.981c1.175 0 2.362.047 3.529.14a8 8 0 0 0 7.852-11.424 75.292 75.292 0 0 1 -7.381-32.716 76 76 0 0 1 137.358-44.854 8 8 0 0 0 10.717 2.042 60.061 60.061 0 0 1 63.684-.105l8.482-13.566a76.089 76.089 0 0 0 -74.415-3.417 92.035 92.035 0 0 0 -157.344 88.367 60.015 60.015 0 0 0 -5.782 118.057z"/><path d="m358.315 112.1a28.134 28.134 0 0 1 25.685 27.9 27.674 27.674 0 0 1 -6.255 17.64 8 8 0 0 0 0 10.084 64.021 64.021 0 0 1 -21.486 97.719 8 8 0 0 0 -3.432 11.1 56.152 56.152 0 0 1 3.106 48.457l14.83 6a72.192 72.192 0 0 0 -.451-55.082 80.035 80.035 0 0 0 23.5-113.415 44 44 0 0 0 -28.19-65.442 75.916 75.916 0 0 0 -15.674-30.242l-12.197 10.36a59.859 59.859 0 0 1 13.336 28.33 8 8 0 0 0 7.228 6.591z"/><path d="m175.161 63.581a56.484 56.484 0 0 0 56.419 56.419v-16a40.465 40.465 0 0 1 -40.419-40.419z"/><path d="m245.287 101.619 5.426 15.052a56.11 56.11 0 0 0 18.645-11.186l-10.716-11.885a40.175 40.175 0 0 1 -13.355 8.019z"/><path d="m33.292 483.64a8 8 0 0 0 -1.292 4.36v8h16v-5.628l50.708-78.012-13.416-8.72z"/><path d="m168.364 485.614a8.01 8.01 0 0 0 -.364 2.386v8h16v-6.779l34.636-110.835-15.272-4.772z"/><path d="m317.849 144.048a27.925 27.925 0 0 0 -25.834 6.124l-4.33 3.849 10.63 11.958 4.33-3.849a12 12 0 0 1 19.355 5.17l11.05 33.15a22.062 22.062 0 0 1 -.272 14.682l-8.27 22.055 14.98 5.618 8.271-22.055a38.108 38.108 0 0 0 .47-25.359l-11.049-33.151a27.933 27.933 0 0 0 -19.331-18.192z"/><path d="m440 128h16v16h-16z"/><path d="m440 160h16v16h-16z"/><path d="m424 144h16v16h-16z"/><path d="m456 144h16v16h-16z"/><path d="m56 328h16v16h-16z"/><path d="m56 360h16v16h-16z"/><path d="m40 344h16v16h-16z"/><path d="m72 344h16v16h-16z"/><path d="m384 324a36 36 0 1 0 70.331-10.842 28 28 0 1 0 -46.263-23.132 36.088 36.088 0 0 0 -24.068 33.974zm33.452-19.84a8 8 0 0 0 6.817-9.619 12 12 0 1 1 16.74 8.368 8 8 0 0 0 -3.608 11.223 20 20 0 1 1 -19.949-9.972z"/><path d="m477.946 482.648-57.6-64-11.893 10.7 55.547 61.722v4.93h16v-8a8 8 0 0 0 -2.054-5.352z"/><path d="m327.938 263.008a8.033 8.033 0 0 0 -.674-2.361l-40.131-86.947a47.867 47.867 0 0 0 -31.215-26.264l-62.118-16.57a28 28 0 0 0 -32.952 38.085l30.352 70.832-11.45 10.178-7.42-22.26a38.184 38.184 0 0 0 -24.03-24.034l-9.77-3.256a8 8 0 0 0 -10.29 5.649l-16 64a8 8 0 0 0 .407 5.091l22.318 52.072-39.273 60.417 13.416 8.72 41.6-64a8 8 0 0 0 .646-7.511l-22.939-53.523 13.251-53.005 1.573.525a22.1 22.1 0 0 1 13.914 13.914l6.484 19.451a38.66 38.66 0 0 0 -6.022 1.484l-8.145 2.716a8 8 0 0 0 -4.9 10.56l32 80a8 8 0 0 0 4.619 4.52l62.242 23.341 108.569 116.321v4.847h16v-8a8 8 0 0 0 -2.151-5.458l-112-120a8 8 0 0 0 -3.04-2.033l-60.693-22.759-27.537-68.844.1-.032a21.864 21.864 0 0 1 21.041 3.971l35.162 29.3a8 8 0 0 0 12.475-9.3l-55.8-130.2a12.014 12.014 0 0 1 12.007-16.7l45.086 105.2 14.708-6.3-40.23-93.87 17.772 4.745 39.814 87.591 14.566-6.622-34.38-75.635 6.892 1.838a31.91 31.91 0 0 1 20.81 17.509l39.611 85.824 7.27 58.161-28.283 21.214 9.6 12.8 26.148-19.611 67.106 74.563 11.892-10.7-70.319-78.133zm-133.979-2.455q-.53-.441-1.071-.861l4.959-4.408 5.672 13.235z"/><path d="m239.056 260h17.889v16h-17.889z" transform="matrix(.894 -.447 .447 .894 -93.671 139.202)"/><path d="m271.056 252h17.889v16h-17.889z" transform="matrix(.894 -.447 .447 .894 -86.721 152.689)"/></g></svg>