<svg id="filled_outline" height="512" viewBox="0 0 512 512" width="512" xmlns="http://www.w3.org/2000/svg" data-name="filled outline"><path d="m424 208a96.063 96.063 0 0 0 -118.215-93.411 96.111 96.111 0 0 0 -106.728-28.789 56 56 0 1 0 -105.2 35.131 55.979 55.979 0 0 0 -28.207 95.857 120.11 120.11 0 0 0 63.494 157.717 40 40 0 0 0 58.177 44.521 56 56 0 0 0 108.279-12.426 96.054 96.054 0 0 0 112.4-94.6 95.648 95.648 0 0 0 -8.62-39.812 95.635 95.635 0 0 0 24.62-64.188z" fill="#66c3ea"/><path d="m424 208a95.962 95.962 0 0 0 -48.719-83.562 95.627 95.627 0 0 1 -23.9 52.6 96.044 96.044 0 0 1 -87.381 135.815 96.654 96.654 0 0 1 -16.4-1.4 56 56 0 0 1 -108.279 12.427 40 40 0 0 1 -58.177-44.521 119.827 119.827 0 0 1 -25.128-14.507 120.025 120.025 0 0 0 73.128 109.654 40 40 0 0 0 58.177 44.521 56 56 0 0 0 108.279-12.427 96.054 96.054 0 0 0 112.4-94.6 95.648 95.648 0 0 0 -8.62-39.812 95.635 95.635 0 0 0 24.62-64.188z" fill="#3c9ddc"/><path d="m144 56a56.006 56.006 0 0 1 55.057 45.8 96.111 96.111 0 0 1 106.728 28.787 96.066 96.066 0 0 1 117.872 85.32c.214-2.61.343-5.244.343-7.909a96.063 96.063 0 0 0 -118.215-93.411 96.111 96.111 0 0 0 -106.728-28.787 55.985 55.985 0 0 0 -110.472 18.144 56.006 56.006 0 0 1 55.415-47.944z" fill="#9fd9f1"/><path d="m129.144 390.505c-.223-.094-.44-.2-.662-.3q.145.932.33 1.85c.106-.515.207-1.037.332-1.55z" fill="#9fd9f1"/><path d="m93.858 136.933a55.685 55.685 0 0 1 -4.943-14.857 55.908 55.908 0 0 0 -40.335 61.893 56.033 56.033 0 0 1 45.278-47.036z" fill="#9fd9f1"/><path d="m312 376a96.654 96.654 0 0 1 -16.4-1.4 56 56 0 0 1 -108.279 12.427 40 40 0 0 1 -58.177-44.521 120.116 120.116 0 0 1 -72.072-94.558 120.109 120.109 0 0 0 72.072 126.558 40 40 0 0 0 58.177 44.521 56 56 0 0 0 108.279-12.427 96.06 96.06 0 0 0 111.067-110.608 96.022 96.022 0 0 1 -94.667 80.008z" fill="#306bb4"/><path d="m464 368v-24l24-24v-152a32 32 0 0 0 -32-32v-.792a23.209 23.209 0 0 0 -23.208-23.208h-16.792v-4a20 20 0 0 0 -20-20 20.007 20.007 0 0 0 -19.6 16h-15.618a24.782 24.782 0 0 0 -24.782 24.782v127.218l-24-24a45.255 45.255 0 0 0 -64 0l104 104v32z" fill="#efad15"/><path d="m328 264 24 24v-127.218a24.782 24.782 0 0 1 24.782-24.782h15.618a20 20 0 0 1 39.6 4v4h16.792a23.209 23.209 0 0 1 23.208 23.208v.792a31.835 31.835 0 0 1 16 4.292v-4.292a32 32 0 0 0 -32-32v-.792a23.209 23.209 0 0 0 -23.208-23.208h-16.792v-4a20 20 0 0 0 -39.6-4h-15.618a24.782 24.782 0 0 0 -24.782 24.782v127.218l-24-24a45.255 45.255 0 0 0 -64 0l25.008 25.008a45.274 45.274 0 0 1 54.992 6.992z" fill="#fed54d"/><path d="m352 320-94.992-94.992a45.348 45.348 0 0 0 -9.008 6.992l104 104z" fill="#cf7e2c"/><path d="m472 140.292v147.708l-24 24v24h-96v32h112v-24l24-24v-152a31.977 31.977 0 0 0 -16-27.708z" fill="#cf7e2c"/><path d="m336 360h144v80h-144z" fill="#9fc83e"/><path d="m336 360h32v80h-32z" fill="#c6de3a"/><path d="m448 360h32v80h-32z" fill="#75ae43"/><g fill="#9fd9f1"><circle cx="96" cy="464" r="24"/><circle cx="312" cy="40" r="16"/><circle cx="168" cy="472" r="16"/><circle cx="40" cy="64" r="16"/></g><path d="m264 184 16-16 24 24v32l-32 32 16 16-48 48h-72l-24 24-72-72 120-120h40z" fill="#efad15"/><path d="m280 168-16 16-32-32h-40l-120 120 12 12 108-108h40l32 32 16-16 24 24v-24z" fill="#fed54d"/><path d="m152 304-24 24 16 16 24-24h72l48-48-16-16-48 48z" fill="#cf7e2c"/><path d="m304 192-16-16v32l-32 32 16 16 32-32z" fill="#cf7e2c"/><path d="m58.059 261.775h67.882v124.451h-67.882z" fill="#9fc83e" transform="matrix(.707 -.707 .707 .707 -202.156 159.951)"/><path d="m22.059 276.686h67.882v22.627h-67.882z" fill="#c6de3a" transform="matrix(.707 -.707 .707 .707 -187.245 123.951)"/><path d="m90.059 339.029h67.882v33.941h-67.882z" fill="#75ae43" transform="matrix(.707 -.707 .707 .707 -215.411 191.951)"/><path d="m71.716 188h56.569v16h-56.569z" fill="#0a4ea9" transform="matrix(.707 -.707 .707 .707 -109.307 128.127)"/><path d="m65.373 152h45.255v16h-45.255z" fill="#0a4ea9" transform="matrix(.707 -.707 .707 .707 -87.365 109.096)"/><path d="m184 344h48v16h-48z" fill="#0a4ea9"/><path d="m168 376h40v16h-40z" fill="#0a4ea9"/><path d="m463.308 128.681a31.259 31.259 0 0 0 -30.516-24.681h-9.082a27.995 27.995 0 0 0 -53-8h-9.925a32.819 32.819 0 0 0 -32.785 32.782v107.905l-10.343-10.344a53.637 53.637 0 0 0 -5.657-4.9v-29.443a8 8 0 0 0 -2.343-5.657l-24-24a8 8 0 0 0 -11.314 0l-10.343 10.343-26.343-26.343a8 8 0 0 0 -5.657-2.343h-40a8 8 0 0 0 -5.657 2.343l-88 88 11.314 11.314 85.656-85.657h33.374l29.656 29.657a8 8 0 0 0 11.314 0l10.343-10.343 16 16v25.372l-29.657 29.657a8 8 0 0 0 0 11.314l10.344 10.343-40 40h-68.687a8 8 0 0 0 -5.657 2.343l-10.343 10.343-74.343-74.343a8 8 0 0 0 -11.314 0l-48 48a8 8 0 0 0 0 11.314l88 88a8 8 0 0 0 11.314 0l48-48a8 8 0 0 0 0-11.314l-2.343-2.343 8-8h68.686a8 8 0 0 0 5.657-2.343l42.343-42.343 56 56v12.686h-8a8 8 0 0 0 -8 8v80a8 8 0 0 0 8 8h31.481v-16h-23.481v-64h128v64h-87.183v16h95.183a8 8 0 0 0 8-8v-80a8 8 0 0 0 -8-8h-8v-4.687l21.657-21.656a8 8 0 0 0 2.343-5.657v-152a40.059 40.059 0 0 0 -32.692-39.319zm-351.308 252.006-76.687-76.687 36.687-36.687 76.687 76.687zm368-64-21.657 21.656a8 8 0 0 0 -2.343 5.657v8h-96v-16a8 8 0 0 0 -2.343-5.657l-64-64-10.344-10.343 20.572-20.571c.845.709 1.673 1.443 2.458 2.228l24 24a8 8 0 0 0 13.657-5.657v-127.218a16.8 16.8 0 0 1 16.782-16.782h7.218v104h16v-108a12 12 0 0 1 24 0v108h16v-96h8.792a15.225 15.225 0 0 1 15.208 15.208v88.792h16v-78.624a24.039 24.039 0 0 1 16 22.624z"/><path d="m71.716 188h56.569v16h-56.569z" transform="matrix(.707 -.707 .707 .707 -109.307 128.127)"/><path d="m65.373 152h45.255v16h-45.255z" transform="matrix(.707 -.707 .707 .707 -87.362 109.088)"/><path d="m184 344h48v16h-48z"/><path d="m168 376h40v16h-40z"/><path d="m191.188 87.251a8 8 0 0 0 10.612 6.066 88.108 88.108 0 0 1 97.837 26.393l12.293-10.242a104.151 104.151 0 0 0 -107.255-33.84 64.01 64.01 0 0 0 -121.641 39.9 63.982 63.982 0 0 0 -26.752 103.1 127.416 127.416 0 0 0 -5.62 19.293l15.667 3.248a111.4 111.4 0 0 1 6.671-21.23 8 8 0 0 0 -1.872-8.979 47.977 47.977 0 0 1 24.172-82.16 8 8 0 0 0 5.721-11.436 47.49 47.49 0 0 1 -5.021-21.364 48 48 0 0 1 95.188-8.749z"/><path d="m141.46 401.886-13.26 8.957a48.007 48.007 0 0 0 55.009 18.683 64.007 64.007 0 0 0 118.879-14c3.3.313 6.609.471 9.91.471v-15.997a88.894 88.894 0 0 1 -15.043-1.285 8 8 0 0 0 -9.3 6.951 48 48 0 0 1 -92.809 10.642 8 8 0 0 0 -11.4-4.283 32.01 32.01 0 0 1 -41.989-10.139z"/><path d="m96 496a32 32 0 1 0 -32-32 32.036 32.036 0 0 0 32 32zm0-48a16 16 0 1 1 -16 16 16.019 16.019 0 0 1 16-16z"/><path d="m336 40a24 24 0 1 0 -24 24 24.027 24.027 0 0 0 24-24zm-32 0a8 8 0 1 1 8 8 8.009 8.009 0 0 1 -8-8z"/><path d="m144 472a24 24 0 1 0 24-24 24.027 24.027 0 0 0 -24 24zm32 0a8 8 0 1 1 -8-8 8.009 8.009 0 0 1 8 8z"/><path d="m40 88a24 24 0 1 0 -24-24 24.027 24.027 0 0 0 24 24zm0-32a8 8 0 1 1 -8 8 8.009 8.009 0 0 1 8-8z"/></svg>