<svg id="Capa_1" enable-background="new 0 0 512.039 512.039" height="512" viewBox="0 0 512.039 512.039" width="512" xmlns="http://www.w3.org/2000/svg"><g><path d="m166.024 30c8.284 0 15-6.716 15-15s-6.716-15-15-15h-90c-8.284 0-15 6.716-15 15s6.716 15 15 15z"/><path d="m.024 75c0 8.284 6.716 15 15 15h91c8.284 0 15-6.716 15-15s-6.716-15-15-15h-91c-8.284 0-15 6.716-15 15z"/><path d="m257.107 468.066c.005-.005.01-.011.015-.017.006-.006.012-.01.018-.016l88.278-88.833c28.577 18.344 67.68 15.579 93.425-10.167l42.426-42.426c40.939-40.939 40.939-107.553 0-148.492l-127.279-127.28c-40.939-40.939-107.552-40.939-148.492 0l-42.426 42.426c-26.102 26.101-28.728 66.195-9.082 95.084l-39.364 39.364-3.498-59.971c-1.215-23.4-20.494-42.657-44.939-42.657-24.286 0-43.991 19.175-44.962 43.161l-20.3 177.433c-4.997 45.426 10.693 90.036 43.048 122.391 58.633 58.633 154.505 58.628 213.132 0zm-72.822-353.591 42.426-42.427c29.242-29.242 76.823-29.242 106.066 0l127.279 127.279c29.242 29.243 29.242 76.824 0 106.066l-42.426 42.426c-13.684 13.684-33.803 16.624-50.226 9.256l48.802-49.109c8.5-8.499 13.181-19.8 13.181-31.82s-4.681-23.32-13.181-31.819c-4.081-4.081-8.808-7.282-13.949-9.506 9.802-17.179 7.38-39.489-7.264-54.133-4.141-4.142-8.9-7.292-13.978-9.479 9.823-17.184 7.418-39.507-7.235-54.161-14.787-14.787-37.103-17.044-54.166-7.248-2.186-5.074-5.335-9.828-9.473-13.966-17.546-17.545-46.095-17.545-63.64 0l-70.632 70.632c-8.331-16.576-5.88-37.696 8.416-51.991zm-153.545 234.545c21.702-189.89 20.42-178.024 20.453-179.309.197-8.087 6.798-14.629 14.995-14.629 7.947 0 14.562 6.176 14.985 14.308l5.45 93.435c.344 5.898 4.119 11.045 9.641 13.146s11.763.765 15.94-3.413l155.509-155.509c5.85-5.847 15.366-5.848 21.213 0s5.848 15.361.004 21.21c-10.725 10.725-65.889 65.889-84.856 84.856-5.858 5.858-5.858 15.355 0 21.213 5.857 5.858 15.354 5.858 21.213 0 39.502-39.502 67.01-67.009 106.066-106.066 5.864-5.863 15.35-5.863 21.213 0 5.848 5.849 5.848 15.365 0 21.213-7.039 7.039-98.775 98.775-106.066 106.066-5.858 5.857-5.858 15.355 0 21.213 5.857 5.858 15.355 5.858 21.213 0 31.366-31.366 55.195-55.195 84.853-84.853 5.864-5.863 15.35-5.862 21.213 0 5.861 5.862 5.863 15.35 0 21.213l-84.853 84.853c-5.858 5.857-5.859 15.355 0 21.213 5.857 5.858 15.355 5.858 21.213 0l63.64-63.64c5.849-5.849 15.365-5.849 21.214 0 5.768 5.769 5.965 15.247-.033 21.247-35.503 35.498-114.927 115.408-159.077 160.077-47.066 47.052-123.634 47.048-170.695-.011-25.884-25.885-38.437-61.567-34.448-97.833z"/><path d="m497.024 30h-15v-15c0-8.284-6.716-15-15-15s-15 6.716-15 15v15h-15c-8.284 0-15 6.716-15 15s6.716 15 15 15h15v15c0 8.284 6.716 15 15 15s15-6.716 15-15v-15h15c8.284 0 15-6.716 15-15s-6.716-15-15-15z"/><path d="m421.024 467c0-8.284-6.716-15-15-15h-15v-15c0-8.284-6.716-15-15-15s-15 6.716-15 15v15h-15c-8.284 0-15 6.716-15 15s6.716 15 15 15h15v15c0 8.284 6.716 15 15 15s15-6.716 15-15v-15h15c8.284 0 15-6.716 15-15z"/></g></svg>