<svg id="Capa_1" enable-background="new 0 0 512 512" height="512" viewBox="0 0 512 512" width="512" xmlns="http://www.w3.org/2000/svg"><g id="XMLID_29_"><g id="XMLID_332_"><path id="XMLID_335_" d="m474 112.188c-20.953 0-38 17.047-38 38s17.047 38 38 38 38-17.047 38-38-17.047-38-38-38zm0 56c-9.925 0-18-8.075-18-18s8.075-18 18-18 18 8.075 18 18-8.075 18-18 18z"/><path id="XMLID_338_" d="m425.938 68c18.747 0 34-15.252 34-34s-15.253-34-34-34c-18.748 0-34 15.252-34 34s15.253 34 34 34zm0-48c7.72 0 14 6.28 14 14s-6.28 14-14 14-14-6.28-14-14 6.28-14 14-14z"/><path id="XMLID_341_" d="m459.73 289.788c-5.378-1.256-10.757 2.085-12.012 7.463-4.029 17.249-15.238 32.165-30.755 40.923-3.997 2.257-5.945 6.945-4.724 11.37 1.445 5.235 2.178 10.625 2.178 16.02 0 33.116-26.942 60.058-60.059 60.058-5.523 0-10 4.477-10 10v36.158c0 11.149-9.07 20.219-20.219 20.219s-20.219-9.07-20.219-20.219v-35.928c7.765-5.866 12.795-15.171 12.795-25.63 0-4.282-.849-8.367-2.377-12.106h18.605c17.703 0 32.106-14.403 32.106-32.106 0-4.311-.86-8.423-2.407-12.183 16.727-1.087 30.006-15.033 30.006-32.03s-13.278-30.943-30.006-32.03c1.548-3.759 2.407-7.872 2.407-12.183 0-17.703-14.403-32.106-32.106-32.106l-81.515-.002c8.224-7.316 12.545-18.6 10.518-30.097-1.15-6.521-4.165-12.391-8.669-17.028 11.155-10.969 26.302-17.312 42.155-17.312 9.582 0 18.775 2.269 26.974 6.385.077.041.155.076.233.115 12.365 6.275 22.44 16.776 28.102 30.111 2.092 4.928 7.695 7.335 12.709 5.458 7.133-2.669 14.633-4.022 22.292-4.022 11.991 0 23.668 3.349 33.768 9.686 1.652 1.036 3.489 1.53 5.305 1.53 3.327 0 6.582-1.66 8.48-4.687 2.935-4.678 1.522-10.851-3.157-13.786-13.289-8.337-28.641-12.744-44.397-12.744-7.003 0-13.908.862-20.622 2.57-7.597-13.44-18.789-24.183-32.051-31.239l-.134-.134c10.992.639 22.023-4.282 28.719-13.845 5.073-7.245 6.973-16.024 5.35-24.719-1.624-8.695-6.563-16.196-13.91-21.123l-49.812-33.402c-19.607-13.148-42.439-20.094-66.044-20.094-.055 0-.114 0-.168 0l-29.682.042-54.213-54.212c-3.905-3.905-10.237-3.905-14.143 0-3.905 3.905-3.905 10.237 0 14.142l57.149 57.149c1.876 1.876 4.419 2.929 7.071 2.929h.014l33.832-.048h.14c19.623 0 38.606 5.775 54.906 16.705l49.812 33.402c2.846 1.909 4.76 4.815 5.389 8.183.629 3.369-.107 6.77-2.072 9.576-3.808 5.439-11.238 7.004-16.917 3.562l-21.53-13.052c-5.829-3.533-13.108-2.205-17.314 3.156s-3.761 12.749 1.057 17.568l4.841 4.841c-23.286.007-45.441 10.26-60.566 27.735-3.719-.579-7.553-.508-11.364.243l-58.841 11.603c-10.407 2.052-20.383 5.46-29.735 10.094-4.505-11.495-6.858-23.823-6.841-36.178l.031-21.867c.004-2.657-1.05-5.207-2.929-7.086l-108.093-108.092c-3.905-3.905-10.237-3.905-14.143 0-3.905 3.905-3.905 10.237 0 14.143l105.158 105.157-.025 17.716c-.023 16.017 3.265 31.996 9.539 46.723-4.935 3.614-9.617 7.614-13.991 12.001l-20.959 21.018h-72.65c-5.523 0-10 4.477-10 10s4.477 10 10 10h76.801c2.657 0 5.205-1.058 7.081-2.939l23.889-23.957c13.891-13.931 31.435-23.306 50.735-27.111l58.842-11.603c3.361-.663 6.77.038 9.596 1.976 2.827 1.937 4.711 4.862 5.306 8.237 1.153 6.539-2.995 12.899-9.443 14.48l-24.454 5.995c-6.618 1.623-10.828 7.71-10.011 14.475s6.355 11.674 13.169 11.674l121.433.002c6.675 0 12.106 5.431 12.106 12.106s-5.431 12.107-12.106 12.107h-122.785c-5.523 0-10 4.477-10 10s4.477 10 10 10h150.382c6.675 0 12.107 5.431 12.107 12.106s-5.431 12.106-12.107 12.106h-150.382c-5.523 0-10 4.477-10 10s4.477 10 10 10h122.784c6.675 0 12.106 5.431 12.106 12.106s-5.431 12.106-12.106 12.106h-122.784c-5.523 0-10 4.477-10 10s4.477 10 10 10h74.45c6.675 0 12.106 5.431 12.106 12.106s-5.431 12.106-12.106 12.106h-105.23c-26.386 0-51.178-10.29-69.809-28.975l-15.44-15.484c-1.876-1.881-4.424-2.939-7.081-2.939h-77.049c-5.523 0-10 4.477-10 10s4.477 10 10 10h72.898l12.509 12.545c22.411 22.475 52.233 34.853 83.971 34.853h44.104v9.001c0 22.177 18.042 40.219 40.219 40.219 8.269 0 15.964-2.509 22.362-6.805 5.406 15.836 20.432 27.255 38.076 27.255 22.177 0 40.219-18.043 40.219-40.219v-26.779c39.441-4.938 70.059-38.68 70.059-79.438 0-4.681-.413-9.357-1.232-13.971 17.052-11.769 29.282-29.557 34.008-49.793 1.257-5.377-2.085-10.756-7.463-12.012zm-196.029 181.762c-11.149 0-20.219-9.07-20.219-20.219v-9.001h40.438v9.001c0 11.148-9.07 20.219-20.219 20.219z"/><path id="XMLID_342_" d="m460.92 261.75c1.86-1.86 2.93-4.44 2.93-7.07s-1.07-5.21-2.93-7.07-4.44-2.93-7.07-2.93c-2.64 0-5.21 1.07-7.07 2.93s-2.93 4.44-2.93 7.07 1.07 5.21 2.93 7.07 4.44 2.93 7.07 2.93 5.21-1.07 7.07-2.93z"/></g></g></svg>