<svg id="Layer_1" enable-background="new 0 0 511.388 511.388" height="512" viewBox="0 0 511.388 511.388" width="512" xmlns="http://www.w3.org/2000/svg"><g><g><g><path d="m180.613 503.827 69.282-94.6c12.537-17.627 29.747-31.432 49.704-39.871l43.017-18.189c23.991-10.144 44.055-27.736 57.208-50.159l35.477-60.481c4.427-7.548 2.185-17.227-5.114-22.077-6.929-4.604-16.21-3.367-21.683 2.889l-40.059 45.797c-4.4 5.03-11.442 6.863-17.748 4.618-1.124-.4-2.597-1.309-4.285-2.592-17.45-13.267-23.085-36.991-14.062-56.931l62.568-138.275c3.289-7.269.403-15.835-6.62-19.653-7.161-3.893-16.126-1.502-20.379 5.435l-61.653 101.089c-3.836 6.29-13.55 3.51-13.453-3.85l1.769-134.606c.155-7.972-5.88-14.717-13.844-15.473-8.12-.771-15.418 4.942-16.591 12.987l-18.773 128.834c.561 6.927-9.285 8.912-11.47 2.312l-40.446-122.185c-2.507-7.572-10.444-11.94-18.209-10.022-7.917 1.956-12.901 9.759-11.331 17.736l25.157 127.748 8.119 49.689c2.727 16.689-19.321 25.274-28.668 11.164l-57.786-87.232c-4.408-6.654-13.216-8.8-20.206-4.922-7.127 3.953-9.889 12.784-6.278 20.073l57.831 116.731 30.828 69.673-95.004 90.533z" fill="#ffdac9"/></g><g><path d="m430.187 218.45c-6.929-4.604-16.21-3.367-21.683 2.889l-2.823 3.228c2.546 4.88 2.59 10.897-.38 15.96l-35.477 60.481c-13.153 22.423-33.217 40.015-57.208 50.159l-43.017 18.189c-19.958 8.438-37.167 22.243-49.704 39.871l-58.937 80.474 19.655 14.126 69.282-94.6c12.537-17.627 29.747-31.432 49.704-39.871l43.017-18.189c23.991-10.144 44.055-27.736 57.208-50.159l35.477-60.481c4.427-7.548 2.185-17.227-5.114-22.077z" fill="#ffd0ba"/></g><path d="m331.779 503.827-64.569-86.548c-16.281-22.892-38.63-40.819-64.548-51.778l-23.243-9.828c-30.911-13.07-56.762-35.736-73.709-64.627l-29.629-50.512c-4.429-7.55-2.188-17.237 5.109-22.085 6.931-4.606 16.21-3.368 21.686 2.893l40.051 45.788c4.404 5.035 11.445 6.869 17.753 4.624 7.493-2.667 11.955-10.342 10.549-18.148 0 0-14.213-63.104-18.542-88.38-4.633-27.049 31.67-33.808 37.964-14.258 2.566 7.97 5.72 24.261 16.904 22.261 11.417-2.042 8.316-16.291 8.392-25.297.208-24.791 37.719-25.375 40.37-1.243.992 9.033-.944 25.551 10.026 26.182 11.184.643 12.26-17.363 15.574-25.481 9.319-22.824 40.154-10.745 35.784 9.14l-2.623 13.942c-2.948 13.427 10.03 22.965 19.993 17.618l8.599-6.794c15.195-11.286 37.457 1.058 29.153 26.275-9.083 27.582-30.674 88.559-32.093 98.623-2.477 17.573-.081 35.42 12.646 47.829l80.459 76.026z" fill="#ffeee6"/><g fill="#ffe5d9"><path d="m342.823 207.572c-9.083 27.582-30.674 88.559-32.093 98.623-2.477 17.573-.081 35.421 12.646 47.829l87.721 92.464 22.738-16.438-80.459-76.026c-12.726-12.408-15.123-30.256-12.646-47.829 1.419-10.063 23.01-71.041 32.093-98.623 8.304-25.217-13.958-37.561-29.153-26.275l-3.337 2.637c4.192 5.273 5.863 13.393 2.49 23.638z"/><path d="m118.989 273.204c4.404 5.035 11.445 6.869 17.753 4.624.041-.015.083-.03.124-.045 5.897-2.152 7.606-9.715 3.433-14.404l-37.421-42.037c-5.476-6.261-14.755-7.498-21.686-2.893-2.402 1.596-4.244 3.722-5.492 6.119z"/></g></g><path d="m406.294 304.804 35.477-60.481c14.196-24.202-20.153-49.369-38.911-27.921l-40.06 45.797c-.281.321-.567.608-.856.877 2.612-7.745 15.398-45.25 18.002-53.158 5.468-16.604-.744-37.274-20.2-40.039l42.005-92.832c11.375-25.137-25.805-44.745-40.235-21.216l-46.775 76.694c-4.247-2.961-8.927-4.603-14.041-4.925l1.381-105.084c.534-27.534-41.375-31.033-45.354-3.713l-15.045 103.242c-3.115-.618-6.227-.749-9.338-.393l-31.767-95.163c-8.626-26.064-49.349-15.552-44.019 11.52l6.35 32.245c1.875 9.514 16.591 6.616 14.718-2.898l-6.35-32.245c-1.835-9.318 12.112-12.819 15.066-3.89l32.008 95.886c-8.398 6.475-10.217 16.305-9.741 26.253.517 10.778-.371 12.127-2.376 12.485-3.214.567-6.046-9.11-7.412-13.764-1.433-4.877-3.314-9.516-7.092-13.114l-7.416-37.659c-1.873-9.514-16.591-6.616-14.718 2.898l5.52 28.03c-2.756-.104-5.624.176-8.534.89-12.48 3.061-24.466 14.808-21.288 33.364.669 3.903 1.564 8.669 2.6 13.942l-30.902-46.648c-15.192-22.937-51.739-2.168-39.457 22.622l28.542 57.611c-19.91-17.092-49.883 7.437-36.466 30.311l29.629 50.512c12.892 21.978 31.018 40.735 52.398 54.556l-78.902 75.188c-7.044 6.712 3.365 17.516 10.348 10.859l82.063-78.2c28.053 14.534 56.845 22.602 80.08 45.68-23.735 32.022-47.114 64.313-70.665 96.471-5.593 7.637 6.166 16.97 12.102 8.863l68.83-93.982c1.94 2.387 70.274 94.035 70.274 94.035 5.994 8.037 17.693-1.37 12.022-8.969l-64.518-86.479c-17.095-24.008-40.5-42.773-67.689-54.27-37.89-16.021-71.752-34.43-93.403-71.342l-29.628-50.51c-5.448-9.287 7.714-18.422 14.681-10.46l40.051 45.789c6.473 7.399 16.646 10.05 25.912 6.75 10.997-3.913 17.48-15.076 15.416-26.542-.02-.106-.041-.213-.064-.318-.142-.63-14.22-63.203-18.466-87.998-2.687-15.689 19.548-24.014 24.35-7.652 2.598 8.844 8.009 27.243 24.446 24.303 15.922-2.848 15.139-19.189 14.718-27.969-1.024-21.28 24.734-20.758 25.59.239.38 9.289 1.086 26.579 16.729 27.477 17.214 1.016 18.244-18.606 22.948-30.133 4.829-11.828 24.059-8.649 21.47 4.918l-2.604 13.84c-7.338 24.51 15.584 37.954 31.995 24.992l8.502-6.718c13.594-9.963 21.086 7.006 17.476 17.968-2.58 7.834-23.189 68.286-27.622 82.411-2.904 9.253 11.409 13.744 14.312 4.492 1.131-3.603 2.435-7.641 3.851-11.95 6.661.223 13.022-2.584 17.851-8.105l40.06-45.797c6.96-7.955 20.127 1.175 14.682 10.456l-35.477 60.481c-10.108 17.233-24.552 31.432-41.923 41.264-1.969-4.216-3.235-8.979-3.771-14.269-.979-9.653-15.901-8.134-14.924 1.512 1.392 13.736 6.575 25.065 15.403 33.673.028.027.056.055.085.081l80.458 76.025c7.004 6.622 17.378-4.216 10.302-10.902l-78.414-74.094c18.882-11.086 34.615-26.77 45.72-45.7zm-248.129-40.116c-3.432 1.222-7.197.242-9.592-2.495-3.266-2.698-4.816-5.911-6.549-9.407l-51.047-103.037c-4.219-8.517 8.325-15.506 13.511-7.68 16.452 24.836 51.6 77.674 51.6 77.674 3.869 17.908 7.292 33.145 7.783 35.328.683 4.162-1.699 8.191-5.706 9.617zm116.808-120.132c-.993 2.433-1.732 5.24-2.514 8.214-1.08 4.105-3.318 12.615-5.633 12.615-.018 0-.036 0-.054-.001-.327-.019-.444-.074-.443-.066-1.678-1.29-2.027-9.832-2.158-13.048-.354-8.641-1.833-16.802-8.376-23.046l15.775-108.258c1.369-9.394 15.697-8.134 15.514 1.306l-1.434 109.098c-4.35 2.725-8.154 7.008-10.677 13.186zm64.225 30.72c-2.341 1.727-4.596 3.588-6.868 5.412-6.991 5.614-11.867-2.26-9.881-8.829l2.604-13.839c.992-4.611.684-8.882-.556-12.68l49.818-81.684c4.932-8.047 17.669-1.407 13.772 7.207l-46.541 102.856c-.799.482-1.586.991-2.348 1.557z" fill="#060606"/></g></svg>